<svg xmlns="http://www.w3.org/2000/svg" viewBox="0 0 1200 700" width="100%" height="100%" style="background:#090D14; font-family:'Plus Jakarta Sans', system-ui, sans-serif;">
  <defs>
    <linearGradient id="bgGrad4" x1="0%" y1="0%" x2="100%" y2="100%">
      <stop offset="0%" stop-color="#0E1420" />
      <stop offset="100%" stop-color="#070A0F" />
    </linearGradient>
    <linearGradient id="cyanGrad4" x1="0%" y1="0%" x2="100%" y2="0%">
      <stop offset="0%" stop-color="#00F5FF" />
      <stop offset="100%" stop-color="#00A3FF" />
    </linearGradient>
    <filter id="glow4" x="-20%" y="-20%" width="140%" height="140%">
      <feGaussianBlur stdDeviation="6" result="blur" />
      <feComposite in="SourceGraphic" in2="blur" operator="over" />
    </filter>
  </defs>

  <!-- Background -->
  <rect width="1200" height="700" fill="url(#bgGrad4)" />
  
  <!-- Grid Lines -->
  <g opacity="0.07" stroke="#00F5FF" stroke-width="1">
    <line x1="0" y1="100" x2="1200" y2="100" />
    <line x1="0" y1="200" x2="1200" y2="200" />
    <line x1="0" y1="300" x2="1200" y2="300" />
    <line x1="0" y1="400" x2="1200" y2="400" />
    <line x1="0" y1="500" x2="1200" y2="500" />
    <line x1="0" y1="600" x2="1200" y2="600" />
    <line x1="200" y1="0" x2="200" y2="700" />
    <line x1="400" y1="0" x2="400" y2="700" />
    <line x1="600" y1="0" x2="600" y2="700" />
    <line x1="800" y1="0" x2="800" y2="700" />
    <line x1="1000" y1="0" x2="1000" y2="700" />
  </g>

  <!-- Top Bar -->
  <rect x="30" y="30" width="1140" height="60" rx="12" fill="#131B29" stroke="#1E293B" stroke-width="1" />
  <circle cx="60" cy="60" r="10" fill="#00F5FF" opacity="0.8" />
  <text x="85" y="66" fill="#FFFFFF" font-size="16" font-weight="700">ИИ-Архитектор Базы Знаний: Telegram Voice to Notion Knowledge Graph</text>
  <rect x="980" y="44" width="165" height="32" rx="8" fill="#00F5FF" fill-opacity="0.12" stroke="#00F5FF" stroke-width="1" />
  <text x="1062" y="65" fill="#00F5FF" font-size="12" font-weight="700" text-anchor="middle">LIVE PIPELINE</text>

  <!-- Node 1: Telegram Voice Message Input -->
  <rect x="50" y="140" width="300" height="490" rx="16" fill="#111724" stroke="#1F2A3D" stroke-width="1.5" />
  <rect x="70" y="160" width="260" height="40" rx="8" fill="#182335" />
  <text x="85" y="185" fill="#00F5FF" font-size="13" font-weight="700">1. Telegram Входной поток</text>
  
  <!-- Voice Bubble 1 -->
  <rect x="70" y="220" width="260" height="90" rx="12" fill="#162030" stroke="#25354D" />
  <circle cx="95" cy="245" r="14" fill="#0088CC" />
  <text x="95" y="250" fill="#FFF" font-size="14" text-anchor="middle">🎙️</text>
  <text x="120" y="243" fill="#FFFFFF" font-size="12" font-weight="700">Голосовое: 01:24 мин</text>
  <text x="120" y="260" fill="#94A3B8" font-size="11">«Обсудили с клиентом ТЗ...</text>
  <text x="120" y="278" fill="#94A3B8" font-size="11">нужен модуль МойСклад и бот»</text>
  <text x="75" y="298" fill="#38BDF8" font-size="10">@GOLOASOVOE_pasha_roma_bot</text>

  <!-- Voice Bubble 2 -->
  <rect x="70" y="325" width="260" height="90" rx="12" fill="#162030" stroke="#25354D" />
  <circle cx="95" cy="350" r="14" fill="#0088CC" />
  <text x="95" y="355" fill="#FFF" font-size="14" text-anchor="middle">🎙️</text>
  <text x="120" y="348" fill="#FFFFFF" font-size="12" font-weight="700">Голосовое: 02:10 мин</text>
  <text x="120" y="365" fill="#94A3B8" font-size="11">«Регламент списания продуктов...</text>
  <text x="120" y="383" fill="#94A3B8" font-size="11">чек-лист для кухни точки #3»</text>
  <text x="75" y="403" fill="#10B981" font-size="10">✓ Авто-транскрибация Whisper</text>

  <rect x="70" y="430" width="260" height="175" rx="12" fill="#0C121D" stroke="#1E293B" />
  <text x="85" y="455" fill="#94A3B8" font-size="11" font-weight="700">ФИЛЬТРЫ &amp; ПРАВИЛА:</text>
  <text x="85" y="480" fill="#CBD5E1" font-size="11">• Шумоподавление и VAD</text>
  <text x="85" y="505" fill="#CBD5E1" font-size="11">• Спикеризация (Паша / Рома)</text>
  <text x="85" y="530" fill="#CBD5E1" font-size="11">• Детекция задач и дедлайнов</text>
  <text x="85" y="555" fill="#CBD5E1" font-size="11">• Тегирование по проектам</text>
  <text x="85" y="580" fill="#00F5FF" font-size="11" font-weight="600">⚡ Скорость обработки: 2.1 сек</text>

  <!-- Arrow 1 to 2 -->
  <path d="M 350 380 L 440 380" stroke="#00F5FF" stroke-width="2" stroke-dasharray="6,4" />
  <polygon points="445,380 435,375 435,385" fill="#00F5FF" />

  <!-- Node 2: AI Processor & Semantic Extraction -->
  <rect x="450" y="140" width="300" height="490" rx="16" fill="#111724" stroke="#00F5FF" stroke-opacity="0.4" stroke-width="1.5" />
  <rect x="470" y="160" width="260" height="40" rx="8" fill="#182335" />
  <text x="485" y="185" fill="#00F5FF" font-size="13" font-weight="700">2. LLM Экстрактор &amp; Граф</text>

  <rect x="470" y="220" width="260" height="110" rx="12" fill="#152132" stroke="#23354E" />
  <text x="485" y="245" fill="#38BDF8" font-size="12" font-weight="700">СЕМАНТИЧЕСКИЙ РАЗБОР:</text>
  <text x="485" y="270" fill="#E2E8F0" font-size="11">1. Сущности: Заказчик, Стек, Сроки</text>
  <text x="485" y="292" fill="#E2E8F0" font-size="11">2. Action Items: Чек-листы, задачи</text>
  <text x="485" y="314" fill="#E2E8F0" font-size="11">3. Связи с существующими страницами</text>

  <!-- Graph Schema Visual -->
  <rect x="470" y="345" width="260" height="260" rx="12" fill="#0A0F18" stroke="#1E293B" />
  <circle cx="600" cy="420" r="28" fill="#00F5FF" fill-opacity="0.2" stroke="#00F5FF" stroke-width="1.5" />
  <text x="600" y="424" fill="#FFFFFF" font-size="10" font-weight="700" text-anchor="middle">ПРОЕКТ</text>

  <circle cx="525" cy="510" r="24" fill="#10B981" fill-opacity="0.2" stroke="#10B981" stroke-width="1.5" />
  <text x="525" y="514" fill="#FFFFFF" font-size="9" font-weight="700" text-anchor="middle">ЗАДАЧИ</text>

  <circle cx="675" cy="510" r="24" fill="#F59E0B" fill-opacity="0.2" stroke="#F59E0B" stroke-width="1.5" />
  <text x="675" y="514" fill="#FFFFFF" font-size="9" font-weight="700" text-anchor="middle">РЕГЛАМЕНТ</text>

  <circle cx="600" cy="570" r="20" fill="#8B5CF6" fill-opacity="0.2" stroke="#8B5CF6" stroke-width="1.5" />
  <text x="600" y="574" fill="#FFFFFF" font-size="8" font-weight="700" text-anchor="middle">БАЗА</text>

  <!-- Graph Connections -->
  <line x1="585" y1="440" x2="540" y2="490" stroke="#38BDF8" stroke-width="1.5" />
  <line x1="615" y1="440" x2="660" y2="490" stroke="#38BDF8" stroke-width="1.5" />
  <line x1="545" y1="525" x2="585" y2="560" stroke="#38BDF8" stroke-width="1.5" />
  <line x1="655" y1="525" x2="615" y2="560" stroke="#38BDF8" stroke-width="1.5" />

  <!-- Arrow 2 to 3 -->
  <path d="M 750 380 L 840 380" stroke="#00F5FF" stroke-width="2" stroke-dasharray="6,4" />
  <polygon points="845,380 835,375 835,385" fill="#00F5FF" />

  <!-- Node 3: Notion Database Result -->
  <rect x="850" y="140" width="300" height="490" rx="16" fill="#111724" stroke="#1F2A3D" stroke-width="1.5" />
  <rect x="870" y="160" width="260" height="40" rx="8" fill="#182335" />
  <text x="885" y="185" fill="#00F5FF" font-size="13" font-weight="700">3. Notion Knowledge Base</text>

  <rect x="870" y="220" width="260" height="385" rx="12" fill="#0C121D" stroke="#1E293B" />
  <rect x="885" y="235" width="230" height="30" rx="6" fill="#1E293B" />
  <text x="895" y="255" fill="#FFFFFF" font-size="11" font-weight="700">📁 База: 1 420 связанных заметок</text>

  <!-- Mock Notion items -->
  <rect x="885" y="275" width="230" height="45" rx="6" fill="#15202E" stroke="#25354D" />
  <text x="895" y="293" fill="#38BDF8" font-size="10" font-weight="700">⚡ Интеграция МойСклад</text>
  <text x="895" y="308" fill="#64748B" font-size="9">Связано: @Паша, @Рома, 4 задачи</text>

  <rect x="885" y="330" width="230" height="45" rx="6" fill="#15202E" stroke="#25354D" />
  <text x="895" y="348" fill="#10B981" font-size="10" font-weight="700">📋 Чек-лист кухни точки #3</text>
  <text x="895" y="363" fill="#64748B" font-size="9">Связано: СанПиН, Управляющий</text>

  <rect x="885" y="385" width="230" height="45" rx="6" fill="#15202E" stroke="#25354D" />
  <text x="895" y="403" fill="#F59E0B" font-size="10" font-weight="700">🎯 B2B Аутрич Smart Cadence</text>
  <text x="895" y="418" fill="#64748B" font-size="9">Связано: Воронка 400 контактов</text>

  <rect x="885" y="445" width="230" height="145" rx="8" fill="#101926" stroke="#2A3C56" />
  <text x="895" y="468" fill="#10B981" font-size="11" font-weight="700">ИТОГ ВНЕДРЕНИЯ:</text>
  <text x="895" y="492" fill="#E2E8F0" font-size="10">✓ 0 потерянных договоренностей</text>
  <text x="895" y="514" fill="#E2E8F0" font-size="10">✓ Мгновенный поиск по аудиоархиву</text>
  <text x="895" y="536" fill="#E2E8F0" font-size="10">✓ Авто-систематизация и теги</text>
  <text x="895" y="558" fill="#00F5FF" font-size="10" font-weight="700">✓ Самообновляемый граф знаний</text>
</svg>
